<svg id="logo_tricia_leach" data-name="Layer 1" xmlns="http://www.w3.org/2000/svg" viewBox="0 0 257 36">

<path d="M10.939,11.256H17.6v5.488h-6.66V28c0,1.032.422,2.111,1.782,2.111s1.829-1.125,1.829-2.251a7.593,7.593,0,0,0-.328-2.064h5.535a7.071,7.071,0,0,1,.563,2.861c0,3.565-2.346,7.177-8.021,7.177-4.222,0-8.35-1.5-8.35-8.49v-10.6H.339V11.256H4.466l1.079-5.91h5.395Z" fill="#e9529d"/>

<path d="M30.592,16.51a6.841,6.841,0,0,1,6.613-5.77,7.421,7.421,0,0,1,1.782.188v6.9a14.516,14.516,0,0,0-2.955-.329c-2.627,0-5.253,1.548-5.253,4.738V35.319H23.79V11.256h6.8Z" fill="#e9529d"/>

<path d="M46.726.89c2.486,0,4.456,1.642,4.456,3.987,0,2.3-1.97,3.894-4.456,3.894-2.532,0-4.409-1.595-4.409-3.894C42.316,2.532,44.193.89,46.726.89Z" fill="#e9529d"/>

<rect x="43.161" y="11.256" width="6.989" height="24.063" fill="#e9529d"/>

<path d="M67.738,10.74c2.486,0,5.723.516,9.851,3.565L74.4,19.418a9.619,9.619,0,0,0-6.332-2.392c-4.081,0-6.8,2.58-6.8,6.238s2.72,6.238,6.8,6.238A9.619,9.619,0,0,0,74.4,27.11l3.19,5.113c-4.128,3.049-7.364,3.565-9.851,3.565-8.256,0-13.462-5.395-13.462-12.524S59.482,10.74,67.738,10.74Z" fill="#e9529d"/>

<path d="M84.857.89c2.486,0,4.456,1.642,4.456,3.987,0,2.3-1.97,3.894-4.456,3.894-2.532,0-4.408-1.595-4.408-3.894C80.449,2.532,82.325.89,84.857.89Z" fill="#e9529d"/>

<rect x="81.293" y="11.256" width="6.989" height="24.063" fill="#e9529d"/>

<path d="M119.238,11.256V35.319h-6.989V31.8a8.617,8.617,0,0,1-7.552,4.034c-7.317,0-11.727-5.629-11.727-12.665,0-6.754,4.081-12.43,11.586-12.43a9.636,9.636,0,0,1,7.692,3.8V11.256Zm-13.087,18.9c3.424,0,6.285-2.2,6.285-6.567,0-4.456-2.674-7.176-6.473-7.176-3.847,0-6,3.1-6,6.8C99.96,27.063,102.3,30.159,106.151,30.159Z" fill="#e9529d"/>

<path d="M136.778,35.319V1.406h6.989V35.319Z" fill="#e9529d"/>

<path d="M172.9,31.1a15.094,15.094,0,0,1-11.211,4.738c-8.912,0-13.79-5.582-13.79-12.43,0-7.083,5.535-12.665,13.274-12.665,6.66,0,13.04,4.6,13.04,14.166H154.837c.141,3,2.908,5.207,7.364,5.207a10.174,10.174,0,0,0,6.66-2.861ZM154.978,20.685h12.055c-.47-3.1-3.612-4.269-5.957-4.269C158.823,16.416,155.821,17.448,154.978,20.685Z" fill="#e9529d"/>

<path d="M202.679,11.256V35.319h-6.989V31.8a8.617,8.617,0,0,1-7.552,4.034c-7.317,0-11.727-5.629-11.727-12.665,0-6.754,4.081-12.43,11.586-12.43a9.636,9.636,0,0,1,7.692,3.8V11.256Zm-13.087,18.9c3.424,0,6.285-2.2,6.285-6.567,0-4.456-2.674-7.176-6.473-7.176-3.847,0-6,3.1-6,6.8C183.4,27.063,185.745,30.159,189.592,30.159Z" fill="#e9529d"/>

<path d="M219.7,10.74c2.486,0,5.723.516,9.851,3.565l-3.19,5.113a9.619,9.619,0,0,0-6.332-2.392c-4.081,0-6.8,2.58-6.8,6.238s2.72,6.238,6.8,6.238a9.619,9.619,0,0,0,6.332-2.392l3.19,5.113c-4.128,3.049-7.364,3.565-9.851,3.565-8.256,0-13.462-5.395-13.462-12.524S211.448,10.74,219.7,10.74Z" fill="#e9529d"/>

<path d="M233.68,1.406h6.989V14.54a8.552,8.552,0,0,1,7.458-3.8c6.754,0,8.583,5.394,8.583,11.492V35.319h-6.988V22.373c0-3.331-1.22-5.863-4.456-5.863s-4.6,2.58-4.6,5.91v12.9H233.68Z" fill="#e9529d"/>

</svg>