<svg id="Layer_1" data-name="Layer 1" xmlns="http://www.w3.org/2000/svg" xmlns:xlink="http://www.w3.org/1999/xlink" viewBox="0 0 200 200">

<title>Artboard 1</title><path d="M175.562,74.762c-.035-.193-.065-.383-.114-.57-.031-.113-.067-.219-.1-.33-.051-.166-.1-.332-.167-.5-.045-.111-.1-.221-.145-.33-.069-.153-.141-.3-.222-.451-.059-.108-.122-.21-.185-.315-.088-.14-.177-.279-.275-.413-.071-.1-.145-.2-.222-.291-.1-.128-.212-.249-.324-.368-.086-.092-.171-.181-.259-.266-.118-.111-.243-.217-.369-.321-.1-.079-.194-.16-.3-.232-.035-.028-.069-.06-.106-.085l-69.17-48.118a6.273,6.273,0,0,0-7.213,0L27.224,70.3c-.039.025-.071.057-.108.085-.1.072-.2.153-.3.232-.124.1-.251.211-.367.321-.09.085-.175.174-.259.266-.114.119-.222.24-.326.368-.077.1-.151.194-.222.291-.1.134-.188.272-.275.413-.063.1-.126.206-.183.315a4.838,4.838,0,0,0-.222.451c-.049.109-.1.219-.145.33-.063.164-.118.33-.169.5-.035.111-.071.217-.1.33-.047.187-.082.376-.114.57-.016.1-.039.194-.053.291a7.146,7.146,0,0,0-.057.887v48.118a7.118,7.118,0,0,0,.057.887c.014.1.037.2.053.293.033.189.067.381.114.568.029.113.065.221.1.33.051.168.106.334.169.5.043.113.1.219.145.328.067.153.139.3.222.453.057.106.12.211.183.311.088.142.177.279.275.415.071.1.145.2.222.293.1.125.212.249.326.366.084.089.169.181.259.264.116.113.243.221.367.325.1.079.194.157.3.232.037.028.069.057.108.083L96.392,177.82a6.265,6.265,0,0,0,7.213,0l69.17-48.118c.037-.026.071-.055.106-.083.1-.074.2-.153.3-.232.126-.1.251-.213.369-.325.088-.083.173-.174.259-.264.112-.117.222-.24.324-.366.077-.1.151-.191.222-.293.1-.136.187-.272.275-.415.063-.1.126-.2.185-.311.082-.149.153-.3.222-.453.049-.108.1-.215.145-.328.065-.164.116-.33.167-.5.035-.108.071-.217.1-.33.049-.187.079-.379.114-.568.016-.1.039-.194.051-.293a7.119,7.119,0,0,0,.059-.887V75.94a7.148,7.148,0,0,0-.059-.887C175.6,74.956,175.578,74.86,175.562,74.762ZM100,116.053,77,100l23-16.055L123,100ZM93.5,72.159,65.3,91.836,42.541,75.951,93.5,40.5ZM53.6,100l-16.27,11.355V88.643Zm11.7,8.165,28.2,19.677V159.5L42.541,124.05Zm41.2,19.677,28.2-19.677,22.762,15.885L106.5,159.5ZM146.394,100l16.273-11.357v22.712Zm-11.7-8.165L106.5,72.159V40.5l50.958,35.447Z" fill="#454545" fill-rule="evenodd"/>

</svg>