<svg id="Layer_1" data-name="Layer 1" xmlns="http://www.w3.org/2000/svg" xmlns:xlink="http://www.w3.org/1999/xlink" viewBox="0 0 200 200">

<title>Artboard 1</title>

<path d="M21.038,102c0,35.766,22.623,66.114,54,76.82,3.951.746,5.39-1.754,5.39-3.9,0-1.923-.068-7.013-.107-13.768-21.964,4.891-26.6-10.855-26.6-10.855-3.592-9.354-8.769-11.844-8.769-11.844-7.169-5.025.543-4.921.543-4.921,7.926.572,12.094,8.345,12.094,8.345,7.048,12.371,18.483,8.8,22.982,6.725.717-5.234,2.758-8.8,5.012-10.825-17.533-2.043-35.968-8.986-35.968-40.011a31.747,31.747,0,0,1,8.129-21.73c-.81-2.048-3.519-10.279.776-21.422,0,0,6.631-2.182,21.712,8.3a73.115,73.115,0,0,1,39.54,0c15.071-10.477,21.692-8.3,21.692-8.3,4.3,11.143,1.595,19.374.785,21.422a31.691,31.691,0,0,1,8.115,21.73c0,31.1-18.459,37.943-36.05,39.951,2.836,2.5,5.356,7.44,5.356,14.99,0,10.825-.092,19.558-.092,22.212,0,2.167,1.42,4.682,5.429,3.892,31.348-10.726,53.952-41.049,53.952-76.81,0-44.717-35.357-80.965-78.969-80.965S21.038,57.286,21.038,102Z" fill="#454545" fill-rule="evenodd"/>

</svg>