<svg id="Layer_1" data-name="Layer 1" xmlns="http://www.w3.org/2000/svg" xmlns:xlink="http://www.w3.org/1999/xlink" viewBox="0 0 200 200">

<title>Artboard 1</title><path d="M165.8,165.8H136.716V119.532c0-12.109-4.55-20.367-14.555-20.367-7.653,0-11.908,5.57-13.889,10.954-.743,1.921-.627,4.609-.627,7.306V165.8H78.83s.371-81.955,0-89.4h28.815v14.03c1.7-6.134,10.91-14.889,25.6-14.889,18.23,0,32.553,12.867,32.553,40.548ZM49.689,65.216H49.5c-9.285,0-15.305-6.834-15.305-15.488,0-8.831,6.2-15.53,15.669-15.53S65.149,40.88,65.335,49.7C65.335,58.357,59.33,65.216,49.689,65.216ZM37.518,76.4H63.168v89.4H37.518Z" fill="#454545" fill-rule="evenodd"/>

</svg>