<svg id="Layer_1" data-name="Layer 1" xmlns="http://www.w3.org/2000/svg" xmlns:xlink="http://www.w3.org/1999/xlink" viewBox="0 0 200 200">

<title>Artboard 1</title><path d="M164.3,87.812a43.756,43.756,0,0,0,8.079-6.505v59.37a11.106,11.106,0,0,1-3.8,8.45,12.961,12.961,0,0,1-9.128,3.515H40.544a12.962,12.962,0,0,1-9.129-3.515,11.108,11.108,0,0,1-3.8-8.45V81.307a42.09,42.09,0,0,0,8.159,6.505q29.243,18.394,40.149,25.8,4.6,3.14,7.472,4.9a47.641,47.641,0,0,0,7.634,3.589,24.865,24.865,0,0,0,8.886,1.832h.164a24.86,24.86,0,0,0,8.885-1.832,47.6,47.6,0,0,0,7.634-3.589q2.869-1.755,7.473-4.9Q137.805,104.411,164.3,87.812Zm-122.791-8a38.842,38.842,0,0,1-9.451-8.636q-4.443-5.5-4.443-10.208a14.362,14.362,0,0,1,3.352-9.721q3.352-3.888,9.572-3.888H159.456a13.006,13.006,0,0,1,9.087,3.514,11.06,11.06,0,0,1,3.838,8.45,18.765,18.765,0,0,1-3.959,11.29,37.062,37.062,0,0,1-9.855,9.2q-30.374,19.517-37.806,24.3-.808.525-3.434,2.281t-4.362,2.842q-1.737,1.083-4.2,2.429a25.393,25.393,0,0,1-4.645,2.017,13.737,13.737,0,0,1-4.04.673h-.163a13.737,13.737,0,0,1-4.04-.673,25.359,25.359,0,0,1-4.645-2.017q-2.464-1.345-4.2-2.429t-4.362-2.842q-2.625-1.757-3.433-2.281-7.352-4.784-21.165-13.645T41.512,79.811Z" fill="#454545" fill-rule="evenodd"/>

</svg>