<?xml version="1.0" encoding="UTF-8"?>
<svg width="19px" height="19px" viewBox="0 0 19 19" version="1.1" xmlns="http://www.w3.org/2000/svg" xmlns:xlink="http://www.w3.org/1999/xlink">
    <!-- Generator: Sketch 46.2 (44496) - http://www.bohemiancoding.com/sketch -->
    <title>Shape</title>
    <desc>Created with Sketch.</desc>
    <defs></defs>
    <g id="Welcome" stroke="none" stroke-width="1" fill="black" fill-rule="evenodd" fill-opacity="1">
        <g id="Desktop-v5" transform="translate(-79.000000, -2103.000000)" fill="#454545">
            <g id="Footer" transform="translate(0.000000, 1965.000000)">
                <g id="Social-Icons-Copy" transform="translate(39.000000, 131.000000)">
                    <g id="github" transform="translate(33.000000, 0.000000)">
                        <path d="M7.5,16.7283254 C7.5,20.8048772 10.0785322,24.2639413 13.654885,25.4841877 C14.1051751,25.5691631 14.2692685,25.2842123 14.2692685,25.0394832 C14.2692685,24.8202468 14.2615335,24.2401482 14.2571135,23.4702714 C11.7537217,24.0277098 11.2255287,22.23303 11.2255287,22.23303 C10.8161239,21.1668723 10.2260505,20.8830546 10.2260505,20.8830546 C9.40889837,20.3103205 10.2879309,20.3222171 10.2879309,20.3222171 C11.1912735,20.3873649 11.6664262,21.2733748 11.6664262,21.2733748 C12.4697658,22.6833994 13.7731207,22.2760841 14.2858436,22.0398526 C14.3676141,21.4433255 14.6002179,21.0371432 14.8571319,20.8060102 C12.858728,20.5731777 10.7575585,19.7817737 10.7575585,16.2456653 C10.7575585,15.2378574 11.108398,14.4141628 11.6841063,13.7689164 C11.5918383,13.5355174 11.282989,12.5973893 11.7725068,11.3272907 C11.7725068,11.3272907 12.5283311,11.0785962 14.2471684,12.2727834 C14.9654225,12.068276 15.7350594,11.965739 16.5002763,11.96234 C17.2649406,11.965739 18.0345775,12.068276 18.7539366,12.2727834 C20.4716689,11.0785962 21.2263882,11.3272907 21.2263882,11.3272907 C21.717011,12.5973893 21.4081617,13.5355174 21.3158937,13.7689164 C21.892707,14.4141628 22.2407839,15.2378574 22.2407839,16.2456653 C22.2407839,19.7902713 20.136852,20.5703452 18.131818,20.7992122 C18.4550324,21.0841629 18.742334,21.6472664 18.742334,22.5077837 C18.742334,23.7416261 18.7318365,24.7369709 18.7318365,25.0394832 C18.7318365,25.2864783 18.8937199,25.5731286 19.35064,25.4830547 C22.9236778,24.2605423 25.5,20.8043107 25.5,16.7283254 C25.5,11.6315026 21.4700421,7.5 16.4991712,7.5 C11.5299579,7.5 7.5,11.6315026 7.5,16.7283254 Z" id="Shape"></path>
                    </g>
                </g>
            </g>
        </g>
    </g>
</svg>