<?xml version="1.0" encoding="UTF-8"?>
<svg width="15px" height="15px" viewBox="0 0 15 15" version="1.1" xmlns="http://www.w3.org/2000/svg" xmlns:xlink="http://www.w3.org/1999/xlink">
    <!-- Generator: Sketch 46.2 (44496) - http://www.bohemiancoding.com/sketch -->
    <title>Shape</title>
    <desc>Created with Sketch.</desc>
    <defs></defs>
    <g id="Welcome" stroke="none" stroke-width="1" fill="none" fill-rule="evenodd" fill-opacity="0.80395154">
        <g id="Desktop-v5" transform="translate(-48.000000, -2105.000000)" fill="#454545">
            <g id="Footer" transform="translate(0.000000, 1965.000000)">
                <g id="Social-Icons-Copy" transform="translate(39.000000, 131.000000)">
                    <g id="linkedin">
                        <path d="M9.37835136,13.8098348 L12.3019755,13.8098348 L12.3019755,23.9990396 L9.37835136,23.9990396 L9.37835136,13.8098348 Z M10.7656397,12.5353438 L10.7444732,12.5353438 C9.6861477,12.5353438 9,11.7564349 9,10.770073 C9,9.76354207 9.70643227,9 10.7859243,9 C11.8645343,9 12.5277516,9.76162121 12.5489182,10.7671917 C12.5489182,11.7535536 11.8645343,12.5353438 10.7656397,12.5353438 L10.7656397,12.5353438 Z M24,24 L20.6847954,24 L20.6847954,18.7262774 C20.6847954,17.3461391 20.1662159,16.4049174 19.0258702,16.4049174 C18.1536336,16.4049174 17.6685677,17.0397618 17.4427916,17.6534768 C17.3581256,17.8724549 17.3713547,18.1788321 17.3713547,18.4861698 L17.3713547,24 L14.0870179,24 C14.0870179,24 14.1293509,14.6588552 14.0870179,13.8098348 L17.3713547,13.8098348 L17.3713547,15.4089512 C17.565381,14.709758 18.6148871,13.7118709 20.2896872,13.7118709 C22.3675329,13.7118709 24,15.1784479 24,18.3334614 L24,24 L24,24 Z" id="Shape"></path>
                    </g>
                </g>
            </g>
        </g>
    </g>
</svg>