<?xml version="1.0" encoding="UTF-8"?>
<svg width="17px" height="13px" viewBox="0 0 17 13" version="1.1" xmlns="http://www.w3.org/2000/svg" xmlns:xlink="http://www.w3.org/1999/xlink">
    <!-- Generator: Sketch 46.2 (44496) - http://www.bohemiancoding.com/sketch -->
    <title>Shape</title>
    <desc>Created with Sketch.</desc>
    <defs></defs>
    <g id="Welcome" stroke="none" stroke-width="1" fill="none" fill-rule="evenodd" fill-opacity="0.434782609">
        <g id="Desktop-v4" transform="translate(-23.000000, -473.000000)" fill="#454545">
            <g id="Menu-bar" transform="translate(11.000000, 14.000000)">
                <g id="Social-Icons" transform="translate(4.000000, 369.000000)">
                    <g id="mail" transform="translate(0.000000, 80.000000)">
                        <path d="M9.83366096,14.1989382 C9.45314384,13.9603274 9.0939863,13.6321722 8.75641438,13.2145771 C8.41884247,12.7969821 8.25,12.4090957 8.25,12.0511272 C8.25,11.6080077 8.37736644,11.238637 8.63209932,10.9431194 C8.88683219,10.6477065 9.25051027,10.5 9.72313356,10.5 L23.2767534,10.5 C23.6755788,10.5 24.0209486,10.6334798 24.312524,10.900544 C24.6040993,11.1676081 24.75,11.48865 24.75,11.8636696 C24.75,12.3125425 24.5996918,12.7415398 24.2987363,13.1504524 C23.9978938,13.5595742 23.6235925,13.9090695 23.1754932,14.198729 C20.8675274,15.6817564 19.4310103,16.6050264 18.8663938,16.9686438 C18.8050274,17.0084994 18.6744966,17.0950102 18.4750274,17.2285946 C18.2755582,17.362179 18.1098801,17.470239 17.9778801,17.5525655 C17.8458801,17.634892 17.6863048,17.7271562 17.4991541,17.8294628 C17.3120034,17.9315602 17.135363,18.0084471 16.9696849,18.0593912 C16.8038938,18.1106491 16.6504212,18.1360688 16.5092671,18.1360688 L16.5,18.1360688 L16.4907329,18.1360688 C16.3495788,18.1360688 16.1961062,18.1106491 16.0303151,18.0593912 C15.864637,18.0084471 15.6881096,17.9316648 15.5008459,17.8294628 C15.3135822,17.7272608 15.1540068,17.634892 15.0220068,17.5525655 C14.8901199,17.470239 14.7243288,17.362179 14.5248596,17.2285946 C14.3253904,17.0951148 14.1949726,17.0084994 14.1336062,16.9686438 C13.5749795,16.605131 12.770887,16.0866939 11.7212158,15.4134369 C10.6715445,14.7401799 10.0423973,14.3352424 9.83366096,14.1989382 Z M23.8291644,15.110806 C24.1791678,14.8892463 24.486,14.641953 24.75,14.3693446 L24.75,21.1362257 C24.75,21.51135 24.6059075,21.8321826 24.3172705,22.0993514 C24.0287466,22.3665202 23.6819075,22.5 23.2768664,22.5 L9.72324658,22.5 C9.31809247,22.5 8.97125342,22.3665202 8.68272945,22.0993514 C8.39420548,21.8322873 8.25,21.51135 8.25,21.1362257 L8.25,14.3693446 C8.52010274,14.6477065 8.83009932,14.8949997 9.17998973,15.110806 C11.4020651,16.5084732 12.927411,17.48865 13.7561404,18.0511272 C14.1060308,18.289738 14.3899212,18.4759402 14.6078116,18.6093153 C14.8257021,18.7428997 15.1158082,18.8792039 15.4779041,19.0184372 C15.84,19.1576704 16.1776849,19.2272347 16.4907329,19.2272347 L16.5,19.2272347 L16.5093801,19.2272347 C16.8224281,19.2272347 17.16,19.1576704 17.5220959,19.0184372 C17.8843048,18.8792039 18.1742979,18.7428997 18.3921884,18.6093153 C18.6101918,18.4759402 18.8940822,18.289738 19.2439726,18.0511272 C20.2873151,17.3522412 21.8159384,16.3720644 23.8291644,15.110806 Z" id="Shape"></path>
                    </g>
                </g>
            </g>
        </g>
    </g>
</svg>