<svg id="Layer_1" data-name="Layer 1" xmlns="http://www.w3.org/2000/svg" width="75" height="11" viewBox="0 0 75 11"><title>TriciaLeach_Identity_Name_Outlines_Small</title><path d="M3.482,3.444H5.408V5.032H3.482V8.289c0,.3.122.611.516.611s.529-.326.529-.651a2.2,2.2,0,0,0-.095-.6h1.6a2.1,2.1,0,0,1-2.158,2.9c-1.221,0-2.416-.434-2.416-2.456V5.032H.415V3.444H1.609l.312-1.71H3.482Z" fill="#e9529d"/><path d="M9.167,4.964A1.979,1.979,0,0,1,11.08,3.295a2.147,2.147,0,0,1,.516.054V5.344a4.2,4.2,0,0,0-.855-.1A1.393,1.393,0,0,0,9.221,6.62v3.786H7.2V3.444H9.167Z" fill="#e9529d"/><path d="M13.835.445A1.2,1.2,0,0,1,15.124,1.6a1.184,1.184,0,0,1-1.289,1.126A1.164,1.164,0,0,1,12.559,1.6,1.177,1.177,0,0,1,13.835.445Z" fill="#e9529d"/><rect x="12.804" y="3.444" width="2.022" height="6.962" fill="#e9529d"/><path d="M19.914,3.295a4.562,4.562,0,0,1,2.85,1.031l-.923,1.479a2.783,2.783,0,0,0-1.832-.692,1.812,1.812,0,1,0,0,3.61,2.783,2.783,0,0,0,1.832-.692l.923,1.479a4.562,4.562,0,0,1-2.85,1.031,3.59,3.59,0,0,1-3.895-3.623A3.59,3.59,0,0,1,19.914,3.295Z" fill="#e9529d"/><path d="M24.867.445A1.2,1.2,0,0,1,26.156,1.6a1.184,1.184,0,0,1-1.289,1.126A1.164,1.164,0,0,1,23.591,1.6,1.176,1.176,0,0,1,24.867.445Z" fill="#e9529d"/><rect x="23.836" y="3.444" width="2.022" height="6.962" fill="#e9529d"/><path d="M34.813,3.444v6.962H32.791V9.388a2.493,2.493,0,0,1-2.185,1.167,3.381,3.381,0,0,1-3.393-3.664,3.306,3.306,0,0,1,3.352-3.6,2.788,2.788,0,0,1,2.225,1.1v-.95ZM31.027,8.913a1.745,1.745,0,0,0,1.818-1.9,1.863,1.863,0,0,0-1.873-2.076A1.777,1.777,0,0,0,29.236,6.9,1.83,1.83,0,0,0,31.027,8.913Z" fill="#e9529d"/><path d="M39.888,10.406V.594H41.91v9.811Z" fill="#e9529d"/><path d="M50.337,9.184a4.367,4.367,0,0,1-3.243,1.371c-2.578,0-3.99-1.615-3.99-3.6a3.667,3.667,0,0,1,3.84-3.664,3.738,3.738,0,0,1,3.773,4.1h-5.6c.041.868.841,1.506,2.131,1.506a2.943,2.943,0,0,0,1.927-.828ZM45.153,6.172h3.488a1.63,1.63,0,0,0-1.723-1.235A1.726,1.726,0,0,0,45.153,6.172Z" fill="#e9529d"/><path d="M58.954,3.444v6.962H56.931V9.388a2.493,2.493,0,0,1-2.185,1.167,3.381,3.381,0,0,1-3.393-3.664,3.306,3.306,0,0,1,3.352-3.6,2.788,2.788,0,0,1,2.225,1.1v-.95ZM55.167,8.913a1.745,1.745,0,0,0,1.818-1.9,1.863,1.863,0,0,0-1.873-2.076A1.777,1.777,0,0,0,53.376,6.9,1.83,1.83,0,0,0,55.167,8.913Z" fill="#e9529d"/><path d="M63.879,3.295a4.562,4.562,0,0,1,2.85,1.031l-.923,1.479a2.783,2.783,0,0,0-1.832-.692,1.812,1.812,0,1,0,0,3.61,2.783,2.783,0,0,0,1.832-.692l.923,1.479a4.562,4.562,0,0,1-2.85,1.031,3.59,3.59,0,0,1-3.895-3.623A3.59,3.59,0,0,1,63.879,3.295Z" fill="#e9529d"/><path d="M67.922.594h2.022v3.8a2.474,2.474,0,0,1,2.158-1.1c1.954,0,2.483,1.561,2.483,3.325v3.786H72.563V6.66c0-.964-.353-1.7-1.289-1.7s-1.33.746-1.33,1.71v3.732H67.922Z" fill="#e9529d"/></svg>