<svg id="Layer_1" data-name="Layer 1" xmlns="http://www.w3.org/2000/svg" width="112" height="16" viewBox="0 0 112 16"><title>logo-tricia-leach</title><path d="M5.28,4.935H8.153V7.3H5.28v4.856c0,.445.182.911.769.911s.789-.485.789-.971a3.275,3.275,0,0,0-.142-.89H9.084a3.05,3.05,0,0,1,.243,1.234c0,1.538-1.012,3.1-3.46,3.1-1.821,0-3.6-.647-3.6-3.662V7.3H.707V4.935h1.78l.465-2.549H5.28Z" fill="#e9529d"/><path d="M13.757,7.2A2.951,2.951,0,0,1,16.61,4.712a3.2,3.2,0,0,1,.769.081V7.767A6.261,6.261,0,0,0,16.1,7.626a2.076,2.076,0,0,0-2.266,2.044v5.645H10.823V4.935h2.934Z" fill="#e9529d"/><path d="M20.716.463a1.783,1.783,0,0,1,1.922,1.72,1.765,1.765,0,0,1-1.922,1.679,1.736,1.736,0,0,1-1.9-1.679A1.754,1.754,0,0,1,20.716.463Z" fill="#e9529d"/><rect x="19.179" y="4.935" width="3.015" height="10.379" fill="#e9529d"/><path d="M29.78,4.712A6.8,6.8,0,0,1,34.029,6.25L32.653,8.455a4.149,4.149,0,0,0-2.731-1.032,2.7,2.7,0,1,0,0,5.382,4.149,4.149,0,0,0,2.731-1.032l1.376,2.205a6.8,6.8,0,0,1-4.249,1.538c-3.561,0-5.807-2.327-5.807-5.4S26.219,4.712,29.78,4.712Z" fill="#e9529d"/><path d="M37.164.463a1.783,1.783,0,0,1,1.922,1.72,1.765,1.765,0,0,1-1.922,1.679,1.736,1.736,0,0,1-1.9-1.679A1.754,1.754,0,0,1,37.164.463Z" fill="#e9529d"/><rect x="35.627" y="4.935" width="3.015" height="10.379" fill="#e9529d"/><path d="M51.994,4.935V15.314H48.98V13.8a3.717,3.717,0,0,1-3.257,1.74c-3.156,0-5.058-2.428-5.058-5.463,0-2.913,1.76-5.362,5-5.362A4.156,4.156,0,0,1,48.98,6.351V4.935Zm-5.645,8.154a2.6,2.6,0,0,0,2.711-2.833,2.777,2.777,0,0,0-2.792-3.1,2.649,2.649,0,0,0-2.59,2.934A2.729,2.729,0,0,0,46.349,13.088Z" fill="#e9529d"/><path d="M59.56,15.314V.686h3.015V15.314Z" fill="#e9529d"/><path d="M75.139,13.493A6.511,6.511,0,0,1,70.3,15.537c-3.844,0-5.948-2.408-5.948-5.362a5.468,5.468,0,0,1,5.726-5.463c2.873,0,5.625,1.983,5.625,6.11H67.35c.061,1.295,1.254,2.246,3.177,2.246A4.388,4.388,0,0,0,73.4,11.834ZM67.411,9h5.2a2.43,2.43,0,0,0-2.57-1.841A2.574,2.574,0,0,0,67.411,9Z" fill="#e9529d"/><path d="M87.986,4.935V15.314H84.972V13.8a3.717,3.717,0,0,1-3.257,1.74c-3.156,0-5.058-2.428-5.058-5.463,0-2.913,1.76-5.362,5-5.362a4.156,4.156,0,0,1,3.318,1.639V4.935Zm-5.645,8.154a2.6,2.6,0,0,0,2.711-2.833,2.777,2.777,0,0,0-2.792-3.1,2.649,2.649,0,0,0-2.59,2.934A2.729,2.729,0,0,0,82.341,13.088Z" fill="#e9529d"/><path d="M95.33,4.712A6.8,6.8,0,0,1,99.579,6.25L98.2,8.455a4.149,4.149,0,0,0-2.731-1.032,2.7,2.7,0,1,0,0,5.382A4.149,4.149,0,0,0,98.2,11.773l1.376,2.205a6.8,6.8,0,0,1-4.249,1.538c-3.561,0-5.807-2.327-5.807-5.4S91.769,4.712,95.33,4.712Z" fill="#e9529d"/><path d="M101.359.686h3.015V6.351a3.689,3.689,0,0,1,3.217-1.639c2.913,0,3.7,2.327,3.7,4.957v5.645h-3.014V9.73c0-1.437-.526-2.529-1.922-2.529s-1.983,1.113-1.983,2.549v5.564h-3.015Z" fill="#e9529d"/></svg>