<svg id="logo_tricia" xmlns="http://www.w3.org/2000/svg" viewBox="0 0 120 37">

<g id="name_tricia"><path d="M10.939,11.256H17.6v5.488h-6.66V28c0,1.032.422,2.111,1.782,2.111s1.829-1.125,1.829-2.251a7.593,7.593,0,0,0-.328-2.064h5.535a7.071,7.071,0,0,1,.563,2.861c0,3.565-2.346,7.177-8.021,7.177-4.222,0-8.35-1.5-8.35-8.49v-10.6H.339V11.256H4.466l1.079-5.91h5.395Z" fill="#e9529d"/>
<path d="M30.592,16.51a6.841,6.841,0,0,1,6.613-5.77,7.421,7.421,0,0,1,1.782.188v6.9a14.516,14.516,0,0,0-2.955-.329c-2.627,0-5.253,1.548-5.253,4.738V35.319H23.79V11.256h6.8Z" fill="#e9529d"/><rect x="43.161" y="11.256" width="6.989" height="24.063" fill="#e9529d"/>
<path d="M67.738,10.74c2.486,0,5.723.516,9.851,3.565L74.4,19.418a9.619,9.619,0,0,0-6.332-2.392c-4.081,0-6.8,2.58-6.8,6.238s2.72,6.238,6.8,6.238A9.619,9.619,0,0,0,74.4,27.11l3.19,5.113c-4.128,3.049-7.364,3.565-9.851,3.565-8.256,0-13.462-5.395-13.462-12.524S59.482,10.74,67.738,10.74Z" fill="#e9529d"/><rect x="81.293" y="11.256" width="6.989" height="24.063" fill="#e9529d"/>
<path d="M119.238,11.256V35.319h-6.989V31.8a8.617,8.617,0,0,1-7.552,4.034c-7.317,0-11.727-5.629-11.727-12.665,0-6.754,4.081-12.43,11.586-12.43a9.636,9.636,0,0,1,7.692,3.8V11.256Zm-13.087,18.9c3.424,0,6.285-2.2,6.285-6.567,0-4.456-2.674-7.176-6.473-7.176-3.847,0-6,3.1-6,6.8C99.96,27.063,102.3,30.159,106.151,30.159Z" fill="#e9529d"/></g>

<g id="name_tricia_right_dot"><path d="M84.857.89c2.486,0,4.456,1.642,4.456,3.987,0,2.3-1.97,3.894-4.456,3.894-2.532,0-4.408-1.595-4.408-3.894C80.449,2.532,82.325.89,84.857.89Z" fill="#e9529d"/></g>

<g id="name_tricia_left_dot"><path d="M46.726.89c2.486,0,4.456,1.642,4.456,3.987,0,2.3-1.97,3.894-4.456,3.894-2.532,0-4.409-1.595-4.409-3.894C42.316,2.532,44.193.89,46.726.89Z" fill="#e9529d"/></g>

</svg>